<?xml version="1.0" encoding="utf-8"?>
<!-- Generator: Adobe Illustrator 24.1.1, SVG Export Plug-In . SVG Version: 6.00 Build 0)  -->
<svg version="1.1" id="Capa_1" xmlns="http://www.w3.org/2000/svg" xmlns:xlink="http://www.w3.org/1999/xlink" x="0px" y="0px"
	 viewBox="0 0 550.8 99.3" style="enable-background:new 0 0 550.8 99.3;" xml:space="preserve">
<style type="text/css">
	.st0{clip-path:url(#SVGID_2_);}
	.st1{fill:#5B5B5F;}
	.st2{fill:#CA6231;}
</style>
<g>
	<g>
		<g>
			<defs>
				<rect id="SVGID_1_" x="0.5" y="0.5" width="549.8" height="98.3"/>
			</defs>
			<clipPath id="SVGID_2_">
				<use xlink:href="#SVGID_1_"  style="overflow:visible;"/>
			</clipPath>
			<g id="WU6Vlu_11_" class="st0">
				
					<image style="overflow:visible;" width="1000" height="1000" id="WU6Vlu_12_" xlink:href="12F0001E.jpg"  transform="matrix(1.021 0 0 0.4609 631.2169 100.9028)">
				</image>
			</g>
			<use xlink:href="#SVGID_1_"  style="overflow:visible;fill:none;stroke:#CA6231;stroke-miterlimit:10;"/>
		</g>
	</g>
	<path class="st1" d="M109.7,44.7c0-2.8,3.4-4.1,3.1-7.2h0.8c0.4,3.4-3,4.6-3,7.1c0,1.3,0.7,2.4,2.3,2.4c1,0,2-0.5,2.6-1.3l0.6,0.5
		c-0.8,0.9-1.9,1.6-3.3,1.6C110.9,47.8,109.7,46.5,109.7,44.7z M112.3,34.5c0-0.6,0.4-0.9,0.9-0.9c0.5,0,0.9,0.4,0.9,0.9
		c0,0.6-0.4,1-0.9,1C112.7,35.4,112.3,35.1,112.3,34.5z"/>
	<path class="st1" d="M119,30.1h1l5.7,9.6l1.5,2.7h0.1c-0.1-1.3-0.1-2.6-0.1-4v-8.3h0.9v13.6h-1l-5.7-9.6l-1.5-2.7h-0.1
		c0.1,1.3,0.1,2.5,0.1,3.8v8.4H119V30.1z"/>
	<path class="st1" d="M131.1,38.8c0-3.2,2.1-5.2,4.3-5.2c2.3,0,3.8,1.7,3.8,4.6c0,0.2,0,0.5-0.1,0.7H132c0,2.5,1.5,4.3,3.7,4.3
		c1.1,0,1.9-0.4,2.7-0.9l0.4,0.7c-0.8,0.5-1.7,1-3.1,1C133.2,43.9,131.1,42,131.1,38.8z M138.3,38.1c0-2.5-1.1-3.8-2.9-3.8
		c-1.7,0-3.2,1.4-3.4,3.8H138.3z"/>
	<path class="st1" d="M141,38.8c0-3.3,2.1-5.2,4.5-5.2c1.3,0,2.2,0.6,2.9,1.2l-0.5,0.6c-0.6-0.6-1.4-1-2.3-1c-2,0-3.6,1.8-3.6,4.4
		s1.4,4.4,3.6,4.4c1.1,0,2-0.5,2.6-1.1l0.5,0.6c-0.8,0.8-1.9,1.3-3.2,1.3C143,43.9,141,42,141,38.8z"/>
	<path class="st1" d="M149.9,38.8c0-3.2,2.1-5.2,4.3-5.2c2.3,0,3.8,1.7,3.8,4.6c0,0.2,0,0.5-0.1,0.7h-7.1c0,2.5,1.5,4.3,3.7,4.3
		c1.1,0,1.9-0.4,2.7-0.9l0.4,0.7c-0.8,0.5-1.7,1-3.1,1C152,43.9,149.9,42,149.9,38.8z M157.2,38.1c0-2.5-1.1-3.8-2.9-3.8
		c-1.7,0-3.2,1.4-3.4,3.8H157.2z"/>
	<path class="st1" d="M159.5,42.6l0.5-0.7c0.8,0.7,1.7,1.3,3.1,1.3c1.6,0,2.4-0.9,2.4-1.9c0-1.2-1.3-1.8-2.4-2.2
		c-1.5-0.5-3.1-1.1-3.1-2.8c0-1.4,1.1-2.6,3.2-2.6c1.1,0,2.1,0.4,2.8,1l-0.5,0.7c-0.7-0.5-1.4-0.9-2.4-0.9c-1.5,0-2.2,0.9-2.2,1.8
		c0,1.1,1.2,1.6,2.3,2c1.5,0.6,3.2,1.1,3.2,3c0,1.5-1.2,2.8-3.3,2.8C161.6,43.9,160.4,43.3,159.5,42.6z"/>
	<path class="st1" d="M168.7,30.6c0-0.5,0.4-0.8,0.8-0.8c0.4,0,0.8,0.3,0.8,0.8c0,0.5-0.4,0.8-0.8,0.8
		C169.1,31.4,168.7,31.1,168.7,30.6z M169,33.8h0.9v9.9H169V33.8z"/>
	<path class="st1" d="M174,40.9v-6.4h-1.5v-0.7l1.6-0.1l0.1-2.9h0.8v2.9h2.9v0.8h-2.9V41c0,1.3,0.3,2.1,1.7,2.1
		c0.4,0,0.9-0.2,1.2-0.3l0.2,0.7c-0.6,0.2-1.2,0.4-1.6,0.4C174.5,43.9,174,42.7,174,40.9z"/>
	<path class="st1" d="M179,41.2c0-2.2,2-3.2,6.4-3.7c0-1.5-0.4-3.1-2.3-3.1c-1.3,0-2.5,0.7-3.1,1.2l-0.4-0.7
		c0.7-0.5,2.1-1.3,3.7-1.3c2.3,0,3.1,1.7,3.1,3.8v6.3h-0.8l-0.1-1.3h0c-1,0.8-2.2,1.5-3.5,1.5C180.3,43.9,179,43.1,179,41.2z
		 M185.4,41.5v-3.4c-4.1,0.5-5.4,1.4-5.4,3c0,1.4,1,2,2.1,2C183.2,43.1,184.2,42.6,185.4,41.5z"/>
	<path class="st1" d="M188.6,42.6l0.5-0.7c0.8,0.7,1.7,1.3,3.1,1.3c1.6,0,2.4-0.9,2.4-1.9c0-1.2-1.3-1.8-2.4-2.2
		c-1.5-0.5-3.1-1.1-3.1-2.8c0-1.4,1.1-2.6,3.2-2.6c1.1,0,2.1,0.4,2.8,1l-0.5,0.7c-0.7-0.5-1.4-0.9-2.4-0.9c-1.5,0-2.2,0.9-2.2,1.8
		c0,1.1,1.2,1.6,2.3,2c1.5,0.6,3.2,1.1,3.2,3c0,1.5-1.2,2.8-3.3,2.8C190.7,43.9,189.5,43.3,188.6,42.6z"/>
	<path class="st1" d="M201.6,41.2c0-2.2,2-3.2,6.4-3.7c0-1.5-0.4-3.1-2.3-3.1c-1.3,0-2.5,0.7-3.1,1.2l-0.4-0.7
		c0.7-0.5,2.1-1.3,3.7-1.3c2.3,0,3.1,1.7,3.1,3.8v6.3h-0.8l-0.1-1.3h0c-1,0.8-2.2,1.5-3.5,1.5C202.9,43.9,201.6,43.1,201.6,41.2z
		 M207.9,41.5v-3.4c-4.1,0.5-5.4,1.4-5.4,3c0,1.4,1,2,2.1,2C205.7,43.1,206.7,42.6,207.9,41.5z"/>
	<path class="st1" d="M211,48l0.2-0.8c0.2,0.1,0.5,0.2,0.8,0.2c1.2,0,2-1.1,2.5-2.6l0.3-0.9l-4.1-10.1h1l2.4,6.2
		c0.3,0.8,0.7,1.9,1.1,2.8h0.1c0.3-0.9,0.6-1.9,0.9-2.8l2.1-6.2h0.9l-3.9,11.1c-0.6,1.6-1.6,3.3-3.3,3.3
		C211.6,48.2,211.2,48.1,211,48z"/>
	<path class="st1" d="M221.2,40.1v-6.3h0.9V40c0,2.1,0.7,3.1,2.3,3.1c1.2,0,2-0.6,3.2-2v-7.3h0.9v9.9h-0.8l-0.1-1.7h0
		c-1,1.1-2,1.9-3.4,1.9C222.1,43.9,221.2,42.7,221.2,40.1z"/>
	<path class="st1" d="M231.4,38.8c0-3.2,2-5.2,4.4-5.2c1.2,0,2,0.4,3,1.2l0-1.8v-4.1h0.9v14.8h-0.8l-0.1-1.3h0
		c-0.8,0.8-1.9,1.5-3.2,1.5C233,43.9,231.4,42.1,231.4,38.8z M238.7,41.5v-5.9c-1-0.9-1.9-1.3-2.9-1.3c-2,0-3.5,1.9-3.5,4.4
		c0,2.6,1.2,4.4,3.3,4.4C236.7,43.1,237.7,42.5,238.7,41.5z"/>
	<path class="st1" d="M242.7,41.2c0-2.2,2-3.2,6.4-3.7c0-1.5-0.4-3.1-2.3-3.1c-1.3,0-2.5,0.7-3.1,1.2l-0.4-0.7
		c0.7-0.5,2.1-1.3,3.7-1.3c2.3,0,3.1,1.7,3.1,3.8v6.3h-0.8l-0.1-1.3h0c-1,0.8-2.2,1.5-3.5,1.5C244,43.9,242.7,43.1,242.7,41.2z
		 M249.1,41.5v-3.4c-4.1,0.5-5.4,1.4-5.4,3c0,1.4,1,2,2.1,2C246.9,43.1,247.9,42.6,249.1,41.5z"/>
	<path class="st1" d="M257.9,32.8c0-1.3-0.7-2.4-2.3-2.4c-1,0-2,0.5-2.6,1.3l-0.6-0.5c0.8-0.9,1.9-1.6,3.3-1.6c2,0,3.2,1.4,3.2,3.1
		c0,2.8-3.4,4.1-3.1,7.2H255C254.5,36.6,257.9,35.4,257.9,32.8z M254.6,43c0-0.6,0.4-1,0.9-1s0.9,0.4,0.9,1c0,0.6-0.4,0.9-0.9,0.9
		S254.6,43.6,254.6,43z"/>
	<path class="st1" d="M110.4,54.9h2.4v5.4h5.4v-5.4h2.4v13.5h-2.4v-6h-5.4v6h-2.4V54.9z"/>
	<path class="st1" d="M126.7,54.9h2.8l4.4,13.5h-2.5l-2-7.2c-0.4-1.4-0.8-3-1.2-4.4H128c-0.4,1.5-0.8,3-1.2,4.4l-2.1,7.2h-2.4
		L126.7,54.9z M124.9,62.8h6.3v1.9h-6.3V62.8z"/>
	<path class="st1" d="M134.5,66.9l6.5-10h-5.9v-2h8.9v1.4l-6.5,10h6.6v2h-9.5V66.9z"/>
	<path class="st1" d="M149.8,61.7c0-4.4,2.8-7,6.2-7c1.7,0,3,0.8,3.9,1.7l-1.3,1.5c-0.7-0.7-1.5-1.2-2.5-1.2c-2.2,0-3.8,1.9-3.8,4.9
		c0,3.1,1.4,4.9,3.7,4.9c1.2,0,2.1-0.6,2.9-1.4l1.3,1.5c-1.1,1.3-2.5,2-4.2,2C152.5,68.6,149.8,66.1,149.8,61.7z"/>
	<path class="st1" d="M162.4,54.9h2.4v11.4h5.6v2h-8V54.9z"/>
	<path class="st1" d="M172.7,54.9h2.4v13.5h-2.4V54.9z"/>
	<path class="st1" d="M177.8,61.7c0-4.4,2.8-7,6.2-7c1.7,0,3,0.8,3.9,1.7l-1.3,1.5c-0.7-0.7-1.5-1.2-2.5-1.2c-2.2,0-3.8,1.9-3.8,4.9
		c0,3.1,1.4,4.9,3.7,4.9c1.2,0,2.1-0.6,2.9-1.4l1.3,1.5c-1.1,1.3-2.5,2-4.2,2C180.5,68.6,177.8,66.1,177.8,61.7z"/>
	<path class="st1" d="M197.1,54.9h2.8l4.4,13.5h-2.5l-2-7.2c-0.4-1.4-0.8-3-1.2-4.4h-0.1c-0.4,1.5-0.8,3-1.2,4.4l-2.1,7.2h-2.4
		L197.1,54.9z M195.3,62.8h6.3v1.9h-6.3V62.8z"/>
	<path class="st1" d="M205,61.6c0-4.4,2.4-6.9,5.9-6.9s5.9,2.6,5.9,6.9c0,4.4-2.4,7-5.9,7S205,65.9,205,61.6z M214.4,61.6
		c0-3-1.4-4.8-3.5-4.8c-2.1,0-3.5,1.8-3.5,4.8c0,3.1,1.4,5.1,3.5,5.1C213.1,66.7,214.4,64.7,214.4,61.6z M209.8,68.3l2.4-0.2
		c0.5,1.3,1.9,1.9,3.3,1.9c0.6,0,1.1-0.1,1.5-0.2l0.4,1.8c-0.5,0.2-1.2,0.4-2.2,0.4C212.5,71.9,210.6,70.4,209.8,68.3z"/>
	<path class="st1" d="M219.5,62.5v-7.6h2.4v7.7c0,2.9,1.1,3.9,2.7,3.9c1.6,0,2.8-1,2.8-3.9v-7.7h2.3v7.6c0,4.4-2,6.1-5.1,6.1
		S219.5,66.9,219.5,62.5z"/>
	<path class="st1" d="M232.9,53l3.2-2.8l1.3,1.6l-3.5,2.4L232.9,53z M233.1,54.9h2.4v13.5h-2.4V54.9z"/>
	<path class="st1" d="M245.2,63.4l-4-8.4h2.6l1.5,3.4c0.4,1,0.8,1.9,1.2,3h0.1c0.4-1,0.8-2,1.2-3l1.5-3.4h2.5l-4,8.4v5h-2.4V63.4z"
		/>
	<path class="st1" d="M256.3,61.7c0-4.4,2.8-7,6.2-7c1.7,0,3,0.8,3.9,1.7l-1.3,1.5c-0.7-0.7-1.5-1.2-2.5-1.2c-2.2,0-3.8,1.9-3.8,4.9
		c0,3.1,1.4,4.9,3.7,4.9c1.2,0,2.1-0.6,2.9-1.4l1.3,1.5c-1.1,1.3-2.5,2-4.2,2C259,68.6,256.3,66.1,256.3,61.7z"/>
	<path class="st1" d="M267.5,61.6c0-4.4,2.4-6.9,5.9-6.9s5.9,2.6,5.9,6.9c0,4.4-2.4,7-5.9,7S267.5,65.9,267.5,61.6z M276.9,61.6
		c0-3-1.4-4.8-3.5-4.8s-3.5,1.8-3.5,4.8c0,3,1.4,5,3.5,5S276.9,64.6,276.9,61.6z"/>
	<path class="st1" d="M282.1,54.9h2.7l2.4,6.6c0.3,0.9,0.6,1.8,0.9,2.6h0.1c0.3-0.9,0.6-1.8,0.8-2.6l2.3-6.6h2.7v13.5h-2.2v-6.2
		c0-1.2,0.2-3,0.3-4.3H292l-1.1,3.1l-2.2,6h-1.4l-2.2-6l-1.1-3.1h-0.1c0.1,1.2,0.3,3,0.3,4.3v6.2h-2.1V54.9z"/>
	<path class="st1" d="M297.4,62.5v-7.6h2.4v7.7c0,2.9,1.1,3.9,2.7,3.9c1.6,0,2.8-1,2.8-3.9v-7.7h2.3v7.6c0,4.4-2,6.1-5.1,6.1
		S297.4,66.9,297.4,62.5z"/>
	<path class="st1" d="M310.9,54.9h2.5l4.2,7.6l1.4,2.9h0.1c-0.1-1.4-0.3-3.1-0.3-4.6v-5.8h2.3v13.5h-2.5l-4.2-7.6l-1.4-2.9h-0.1
		c0.1,1.4,0.3,3,0.3,4.5v5.9h-2.3V54.9z"/>
	<path class="st1" d="M324.3,53l3.2-2.8l1.3,1.6l-3.5,2.4L324.3,53z M324.4,54.9h2.4v13.5h-2.4V54.9z"/>
	<path class="st1" d="M329.5,61.7c0-4.4,2.8-7,6.2-7c1.7,0,3,0.8,3.9,1.7l-1.3,1.5c-0.7-0.7-1.5-1.2-2.5-1.2c-2.2,0-3.8,1.9-3.8,4.9
		c0,3.1,1.4,4.9,3.7,4.9c1.2,0,2.1-0.6,2.9-1.4l1.3,1.5c-1.1,1.3-2.5,2-4.2,2C332.2,68.6,329.5,66.1,329.5,61.7z"/>
	<path class="st1" d="M344.7,54.9h2.8l4.4,13.5h-2.5l-2-7.2c-0.4-1.4-0.8-3-1.2-4.4H346c-0.4,1.5-0.8,3-1.2,4.4l-2.1,7.2h-2.4
		L344.7,54.9z M342.9,62.8h6.3v1.9h-6.3V62.8z"/>
	<path class="st1" d="M354.9,56.9H351v-2h10.2v2h-3.9v11.4h-2.4V56.9z"/>
	<path class="st1" d="M363.5,54.9h8.1v2h-5.7v3.4h4.8v2h-4.8v4h5.9v2h-8.3V54.9z"/>
	<path class="st1" d="M377.9,61.7c0-4.4,2.8-7,6.2-7c1.7,0,3,0.8,3.9,1.7l-1.3,1.5c-0.7-0.7-1.5-1.2-2.5-1.2c-2.2,0-3.8,1.9-3.8,4.9
		c0,3.1,1.4,4.9,3.7,4.9c1.2,0,2.1-0.6,2.9-1.4l1.3,1.5c-1.1,1.3-2.5,2-4.2,2C380.6,68.6,377.9,66.1,377.9,61.7z"/>
	<path class="st1" d="M389.1,61.6c0-4.4,2.4-6.9,5.9-6.9s5.9,2.6,5.9,6.9c0,4.4-2.4,7-5.9,7S389.1,65.9,389.1,61.6z M398.5,61.6
		c0-3-1.4-4.8-3.5-4.8c-2.1,0-3.5,1.8-3.5,4.8c0,3,1.4,5,3.5,5C397.1,66.5,398.5,64.6,398.5,61.6z"/>
	<path class="st1" d="M403.7,54.9h2.5l4.2,7.6l1.4,2.9h0.1c-0.1-1.4-0.3-3.1-0.3-4.6v-5.8h2.3v13.5h-2.5l-4.2-7.6l-1.4-2.9h-0.1
		c0.1,1.4,0.3,3,0.3,4.5v5.9h-2.3V54.9z"/>
	<path class="st1" d="M421.2,62.5v-7.6h2.4v7.7c0,2.9,1.1,3.9,2.7,3.9c1.6,0,2.8-1,2.8-3.9v-7.7h2.3v7.6c0,4.4-2,6.1-5.1,6.1
		S421.2,66.9,421.2,62.5z"/>
	<path class="st1" d="M434.8,54.9h2.5l4.2,7.6l1.4,2.9h0.1c-0.1-1.4-0.3-3.1-0.3-4.6v-5.8h2.3v13.5h-2.5l-4.2-7.6l-1.4-2.9h-0.1
		c0.1,1.4,0.3,3,0.3,4.5v5.9h-2.3V54.9z"/>
	<path class="st1" d="M455,54.9h2.8l4.4,13.5h-2.5l-2-7.2c-0.4-1.4-0.8-3-1.2-4.4h-0.1c-0.4,1.5-0.8,3-1.2,4.4l-2.1,7.2h-2.4
		L455,54.9z M453.2,62.8h6.3v1.9h-6.3V62.8z"/>
	<path class="st1" d="M462.9,66.6l1.4-1.6c1,0.9,2.3,1.5,3.5,1.5c1.5,0,2.3-0.7,2.3-1.7c0-1.1-0.9-1.5-2.1-2l-1.8-0.8
		c-1.3-0.6-2.7-1.6-2.7-3.6c0-2.1,1.9-3.8,4.5-3.8c1.6,0,3.1,0.7,4.1,1.7l-1.2,1.5c-0.9-0.7-1.8-1.2-2.9-1.2c-1.3,0-2.1,0.6-2.1,1.6
		c0,1.1,1,1.4,2.1,1.9l1.8,0.8c1.6,0.7,2.7,1.7,2.7,3.6c0,2.2-1.8,4-4.8,4C466,68.6,464.2,67.9,462.9,66.6z"/>
	<path class="st1" d="M475.1,54.9h8.1v2h-5.7v3.4h4.8v2h-4.8v4h5.9v2h-8.3V54.9z"/>
	<path class="st1" d="M485.2,66.6l1.4-1.6c1,0.9,2.3,1.5,3.5,1.5c1.5,0,2.3-0.7,2.3-1.7c0-1.1-0.9-1.5-2.1-2l-1.8-0.8
		c-1.3-0.6-2.7-1.6-2.7-3.6c0-2.1,1.9-3.8,4.5-3.8c1.6,0,3.1,0.7,4.1,1.7l-1.2,1.5c-0.9-0.7-1.8-1.2-2.9-1.2c-1.3,0-2.1,0.6-2.1,1.6
		c0,1.1,1,1.4,2.1,1.9l1.8,0.8c1.6,0.7,2.7,1.7,2.7,3.6c0,2.2-1.8,4-4.8,4C488.2,68.6,486.5,67.9,485.2,66.6z"/>
	<path class="st1" d="M496.6,61.6c0-4.4,2.4-6.9,5.9-6.9s5.9,2.6,5.9,6.9c0,4.4-2.4,7-5.9,7S496.6,65.9,496.6,61.6z M506.1,61.6
		c0-3-1.4-4.8-3.5-4.8c-2.1,0-3.5,1.8-3.5,4.8c0,3,1.4,5,3.5,5C504.7,66.5,506.1,64.6,506.1,61.6z"/>
	<path class="st1" d="M511.2,54.9h4.5c2.8,0,5,1,5,4c0,2.9-2.2,4.2-5,4.2h-2.1v5.3h-2.4V54.9z M515.5,61.2c1.8,0,2.8-0.8,2.8-2.3
		c0-1.5-1-2.1-2.8-2.1h-1.9v4.4H515.5z M515.3,62.5L517,61l4.2,7.3h-2.7L515.3,62.5z"/>
	<g>
		<path class="st2" d="M56.6,75.5c-8.1-0.4-14.7-0.6-21.1-2.1c-1-0.2-2-0.6-2.9-1c-0.3-0.1-0.6-0.6-0.5-1c0.4-3.6,1.9-6.3,5.3-8.1
			c3.1-1.6,6-3.5,8.9-5.5c0.8-0.6,1.2-1.8,1.8-2.8c0.1-0.1,0-0.3-0.1-0.4c-0.8-0.7-1.1-1.9-2.3-2.3c-0.4-0.2-0.8-0.6-1.1-1
			c-1.2-1.7-2.1-3.6-2.3-5.7c-0.2-1.1,0-2.1,0.9-2.9c0.2-0.2,0.3-0.6,0.3-0.9c0-1.6-0.3-3.3-0.1-4.9c0.6-4.6,3.5-7.4,8.2-8.1
			c3.1-0.5,6.1-0.3,9.1,0.6c2,0.6,3.9,1.4,4.6,3.7c0,0.1,0.2,0.3,0.3,0.3c1.5,0.9,2,2.3,2,3.9c0,1.5-0.3,3-0.4,4.5
			c0,0.3,0,0.7,0.2,1c0.7,0.8,0.9,1.8,0.8,2.8c-0.3,2.2-1.2,4.1-2.5,5.9c-0.2,0.3-0.5,0.5-0.8,0.8c-0.7,0.6-1.3,1.3-2,1.8
			c-0.7,0.6-0.7,1.2-0.2,2c0.6,1,1.2,1.8,2.3,2.4c3.1,1.8,6.2,3.7,9.3,5.6c2.8,1.7,3.8,4.5,4.1,7.6c0,0.2-0.4,0.7-0.7,0.8
			c-2.2,0.6-4.4,1.4-6.6,1.7C65.6,74.8,60.3,75.2,56.6,75.5z M46.7,59.2c-0.4,0.2-0.7,0.4-1,0.6c-2.5,1.6-5,3.3-7.7,4.7
			c-2.6,1.3-4,3.4-4.6,6.1c-0.2,0.8,0,1.1,0.8,1.3c2.5,0.5,4.9,1.2,7.4,1.5c9,1.2,18.1,1.2,27.1,0c2.5-0.3,4.9-1,7.4-1.6
			c0.3-0.1,0.7-0.5,0.7-0.6c-0.4-2.5-1.3-4.7-3.6-6c-1.4-0.9-2.9-1.7-4.3-2.5c-1.8-1.1-3.6-2.2-5.5-3.4c-1.1,4.4-4.1,6.3-8.4,6.3
			C50.8,65.5,47.8,63.6,46.7,59.2z M43.8,44c-0.1,0-0.2,0-0.4,0c0,0.6-0.1,1.2,0,1.8c0.3,1.9,1.1,3.5,2.3,5c0.1,0.2,0.3,0.4,0.4,0.4
			c1.1,0.1,1.4,1.1,2,1.8c0.4,0.5,0.8,1,1.3,1.4c2.4,2.1,5.1,3.3,8.3,1.9c2-0.8,3.4-2.2,4.7-3.9c0.3-0.4,0.8-0.7,1.2-1
			c0.3-0.2,0.7-0.4,0.8-0.7c0.7-1.5,1.5-3,2.1-4.6c0.2-0.6,0-1.3,0-2c-0.1,0-0.2,0-0.3,0c-0.3,0.8-0.6,1.5-0.9,2.3
			c-0.3,0.7-0.9,0.8-1.5,0.6c-0.4-0.1-0.7-0.6-0.8-1c-0.2-0.6-0.1-1.2-0.2-1.8c-0.3-2.4-1.1-4.6-2.6-6.7c-1.7,2.8-4.2,3.8-7.2,3.9
			c-1.1,0-2.2-0.3-3.4-0.3c-1.7-0.1-2.8,0.8-3,2.5c-0.1,0.7-0.1,1.4-0.1,2.1c0,0.7,0,1.2-0.8,1.4c-0.7,0.1-1.3-0.1-1.5-0.9
			C44.3,45.4,44,44.7,43.8,44z M45.5,44.5c0.1-0.4,0.1-0.8,0.2-1.3c0.4-2.3,2.1-3.6,4.5-3.4c0.5,0,0.9,0.2,1.4,0.2
			c2.9,0.4,5.4-0.1,7.4-2.5c0.7-0.9,1.6-1.8,2.4-2.6c0.6-0.6,1.2-1.1,1.8-1.5c0.6-0.4,0.6-0.8,0.1-1.2c-0.8-0.6-1.6-1.2-2.5-1.5
			c-3.2-1-6.5-1.3-9.7-0.6c-3.5,0.7-5.8,2.7-6.5,6.3C44,39.2,44.4,41.9,45.5,44.5z M60.2,56.4c-3.5,2.4-7,2.4-10.4-0.1
			c-0.5,0.9-1.1,1.8-1.5,2.7c-0.1,0.2-0.1,0.6-0.1,0.8c0.4,1.4,1.2,2.5,2.4,3.3c2.5,1.5,5.1,1.6,7.7,0.6c1.7-0.6,2.9-1.9,3.5-3.7
			c0.1-0.3,0.1-0.7,0-0.9C61.4,58.2,60.8,57.4,60.2,56.4z M64.5,45.2c1-2.6,1.9-5.2,1.6-8c-0.1-0.8-0.4-1.6-0.9-2.3
			c-0.2-0.3-1.1-0.6-1.3-0.4c-0.9,0.6-1.7,1.4-2.6,2.1C63.2,39.3,64.1,42.1,64.5,45.2z"/>
		<path class="st2" d="M73.7,35.3c-2.1-0.9-2.6-1.6-2.6-3.8c0-2.1,0-4.1,0-6.2c0-2.1,1.2-3.2,3.2-3.2c6.2,0,12.4,0,18.6,0
			c2.1,0,3.2,1.2,3.2,3.2c0,2.2,0,4.5,0,6.7c0,2-1.2,3.2-3.2,3.2c-3.3,0-6.5,0-9.8,0c-0.6,0-1.3,0.2-1.9,0.5c-1.9,1-3.7,2.1-5.6,3.1
			c-0.4,0.2-1.2,0.3-1.5,0.1c-0.4-0.2-0.5-0.9-0.6-1.4C73.5,36.8,73.7,36.1,73.7,35.3z M74.8,37.9c0.4-0.2,0.7-0.4,1-0.5
			c1.8-1,3.5-2,5.3-3c0.5-0.3,1.1-0.4,1.6-0.4c3.4,0,6.8,0,10.2,0c1.4,0,2-0.6,2-2c0-2.2,0-4.5,0-6.7c0-1.3-0.6-2-1.9-2
			c-6.2,0-12.4,0-18.6,0c-1.3,0-1.9,0.6-1.9,1.9c0,2,0,4.1,0,6.1c0,2.2,0.3,2.5,2.5,2.7c0.1,0,0.1,0.1,0.2,0.2
			C75,35.3,74.9,36.5,74.8,37.9z"/>
		<path class="st2" d="M83.7,26.8c-2.5,0-4.9,0-7.4,0c-0.4,0-1-0.3-1-0.5c-0.1-0.7,0.6-0.6,1-0.6c4.9,0,9.9,0,14.8,0
			c0.2,0,0.4-0.1,0.5,0c0.2,0.2,0.4,0.4,0.7,0.6c-0.2,0.2-0.4,0.5-0.7,0.6c-0.9,0.1-1.9,0-2.8,0C87.1,26.8,85.4,26.8,83.7,26.8z"/>
		<path class="st2" d="M83.8,30c2.5,0,4.9,0,7.4,0c0.5,0,1.1,0,1.1,0.7c0,0.2-0.7,0.5-1.1,0.5c-5,0-9.9,0-14.9,0
			c-0.4,0-1-0.3-1.1-0.5c-0.1-0.7,0.6-0.7,1.1-0.7C78.8,30,81.3,30,83.8,30C83.8,30,83.8,30,83.8,30z"/>
	</g>
</g>
</svg>
