<?xml version="1.0" encoding="UTF-8"?>
<svg id="Capa_2" data-name="Capa 2" xmlns="http://www.w3.org/2000/svg" viewBox="0 0 37.68 30.7">
  <defs>
    <style>
      .cls-1 {
        fill: #fff;
      }
    </style>
  </defs>
  <g id="Diseño_propuesto" data-name="Diseño propuesto">
    <path class="cls-1" d="M32.93,18.88v2.33c-.22,.01-.41,.03-.6,.03-6.13,0-12.25,0-18.38,.01-.48,0-.68-.16-.86-.58C10.53,14.78,7.94,8.88,5.38,2.97c-.2-.46-.44-.6-.92-.59-1.28,.03-2.56,0-3.84,.02C.18,2.41-.03,2.31,0,1.82,.04,1.25,.01,.68,.01,.05,.29,.03,.52,.02,.74,.01,2.5,.01,4.25,.03,6,0c.52-.01,.76,.16,.96,.63,2.56,5.91,5.15,11.8,7.71,17.71,.19,.44,.42,.55,.88,.55,5.54-.02,11.07,0,16.61,0,.23,0,.47,0,.78,0Z"/>
    <path class="cls-1" d="M11.79,4.78h25.88c-.3,.75-.57,1.44-.86,2.12-.04,.09-.21,.17-.33,.19-.17,.03-.35,.01-.53,.01-7.47,0-14.94-.01-22.41,.02-.67,0-1-.19-1.18-.82-.13-.49-.36-.95-.58-1.52Z"/>
    <path class="cls-1" d="M35.79,9.5c-.3,.75-.55,1.45-.87,2.12-.06,.13-.4,.19-.61,.19-2.38,.01-4.77,0-7.15,0-3.98,0-7.96,0-11.94,.01-.46,0-.72-.11-.86-.58-.17-.58-.43-1.13-.67-1.75h22.12Z"/>
    <path class="cls-1" d="M33.9,14.22c-.29,.73-.53,1.41-.85,2.06-.07,.15-.42,.23-.64,.24-4.8,.01-9.61,.01-14.41,.01q-1.53,0-2.1-1.42c-.11-.27-.22-.54-.35-.89h18.35Z"/>
    <path class="cls-1" d="M14.13,27.17c0-2,1.55-3.57,3.54-3.57,1.96,0,3.53,1.56,3.54,3.52,.01,1.95-1.56,3.56-3.49,3.58-1.99,.01-3.58-1.55-3.59-3.53Z"/>
    <path class="cls-1" d="M32.96,27.16c0,1.99-1.58,3.55-3.57,3.54-1.93-.01-3.51-1.62-3.51-3.56,0-1.98,1.59-3.54,3.59-3.53,1.96,.01,3.49,1.57,3.49,3.55Z"/>
  </g>
</svg>