<?xml version="1.0" encoding="UTF-8"?><svg id="Capa_2" xmlns="http://www.w3.org/2000/svg" viewBox="0 0 19.49 17.36"><defs><style>.cls-1{fill:#bbbbbc;}</style></defs><g id="Diseño_propuesto"><path class="cls-1" d="M0,5.42c.06-.38,.1-.77,.2-1.14C.71,2.32,1.85,.89,3.81,.28c2.09-.66,3.91-.13,5.42,1.46,.18,.19,.34,.39,.51,.6,.17-.2,.33-.4,.5-.59,.83-.9,1.83-1.52,3.05-1.68,1.9-.24,3.52,.34,4.77,1.8,1.25,1.46,1.61,3.18,1.32,5.06-.18,1.19-.73,2.22-1.43,3.17-.93,1.25-2.06,2.3-3.23,3.32-1.38,1.2-2.76,2.39-4.15,3.58-.53,.46-1.1,.48-1.62,.04-1.81-1.57-3.62-3.13-5.4-4.72-.91-.81-1.72-1.71-2.38-2.73C.55,8.62,.13,7.58,.03,6.42,.02,6.38,0,6.33,0,6.29c0-.29,0-.58,0-.88Zm9.74,10.79s.07-.06,.09-.08c1.55-1.34,3.12-2.68,4.66-4.04,1.06-.94,2.07-1.93,2.86-3.12,.75-1.14,1.13-2.38,.95-3.75-.19-1.48-.82-2.71-2.13-3.48-1.22-.72-2.52-.81-3.82-.19-.77,.37-1.34,.97-1.81,1.67-.04,.06-.08,.13-.12,.19-.38,.58-.95,.58-1.34,0-.24-.34-.48-.68-.77-.99-.71-.76-1.58-1.22-2.64-1.27-1.93-.1-3.63,1.09-4.23,2.93-.57,1.74-.3,3.36,.69,4.88,.62,.95,1.38,1.77,2.22,2.52,1.29,1.16,2.61,2.3,3.91,3.44,.49,.43,.98,.84,1.48,1.27Z"/></g></svg>