<?xml version="1.0" encoding="UTF-8"?>
<svg id="Capa_2" data-name="Capa 2" xmlns="http://www.w3.org/2000/svg" viewBox="0 0 132.85 102.65">
  <defs>
    <style>
      .cls-1 {
        fill: #fff;
      }

      .cls-2 {
        fill: #ca6231;
      }

      .cls-3 {
        fill: #20211d;
      }
    </style>
  </defs>
  <g id="Diseño_propuesto" data-name="Diseño propuesto">
    <g>
      <rect class="cls-3" x="15.1" y="-15.1" width="102.65" height="132.85" transform="translate(117.75 -15.1) rotate(90)"/>
      <g>
        <g>
          <path class="cls-1" d="M50.18,38.94c.44,0,.75,.38,.75,.8v19.58c0,8.31-4.2,12.68-12.2,12.68s-12.11-4.37-12.2-12.68v-19.58c0-.42,.35-.8,.75-.8h7.6c.44,0,.75,.38,.75,.8v20.42c0,2.16,1.15,3.43,3.09,3.43s3.09-1.27,3.09-3.38v-20.47c0-.42,.35-.8,.75-.8h7.6Z"/>
          <path class="cls-1" d="M75.73,38.94c.4,0,.66,.33,.62,.66l-.66,7.14c-.04,.38-.4,.66-.71,.66h-6.59v23.29c0,.33-.27,.66-.62,.66h-7.82c-.35,0-.66-.33-.66-.66v-23.29h-7.34c-.31,0-.62-.28-.62-.66v-7.09c0-.38,.31-.7,.62-.7h23.78Z"/>
          <path class="cls-1" d="M85.45,38.94c.4,0,.66,.33,.66,.7v31.03c0,.33-.27,.66-.66,.66h-7.82c-.31,0-.62-.33-.62-.66v-31.03c0-.38,.31-.7,.62-.7h7.82Z"/>
          <path class="cls-1" d="M105.74,62.89c.31,0,.57,.28,.57,.66l-.62,7.14c-.04,.33-.35,.66-.71,.66h-15.95c-.35,0-.66-.33-.66-.66v-31.03c0-.38,.31-.7,.66-.7h7.82c.35,0,.66,.33,.66,.7v23.24h8.22Z"/>
        </g>
        <path class="cls-2" d="M38.59,38.42c-2.32,0-3.86-1.54-3.86-3.83s1.53-3.93,3.86-3.93,3.86,1.59,3.86,3.93-1.53,3.83-3.86,3.83Z"/>
      </g>
    </g>
  </g>
</svg>