<svg xmlns="http://www.w3.org/2000/svg" viewBox="0 0 69.03 69.03"><defs><style>.cls-1{fill:#ca6231;}.cls-2{fill:#fff;}</style></defs><g id="Capa_2" data-name="Capa 2"><g id="Diseño_propuesto" data-name="Diseño propuesto"><rect class="cls-1" width="69.03" height="69.03"/><path class="cls-2" d="M34.31,29.34h-.17A5.64,5.64,0,0,0,30,31.12a6,6,0,1,0,10.35,4.22A5.83,5.83,0,0,0,39,31.14,6.42,6.42,0,0,0,34.31,29.34Z"/><path class="cls-2" d="M41.23,18.3H27.48a9.8,9.8,0,0,0-9.79,9.79V42.77a9.8,9.8,0,0,0,9.79,9.78H41.23A9.8,9.8,0,0,0,51,42.77V28.09A9.8,9.8,0,0,0,41.23,18.3Zm-.47,23.51a9,9,0,0,1-6.41,2.67A9.14,9.14,0,0,1,27.83,29a8.71,8.71,0,0,1,6.31-2.71h.26A9.44,9.44,0,0,1,41.2,29a8.8,8.8,0,0,1,2.25,6.37A9.33,9.33,0,0,1,40.76,41.81Zm2.91-13.66A2.13,2.13,0,1,1,45.79,26,2.12,2.12,0,0,1,43.67,28.15Z"/></g></g></svg>