<?xml version="1.0" encoding="UTF-8"?>
<svg id="Capa_2" data-name="Capa 2" xmlns="http://www.w3.org/2000/svg" viewBox="0 0 40.67 40.67">
  <defs>
    <style>
      .cls-1 {
        fill: #fff;
      }

      .cls-2 {
        fill: #ca6231;
      }
    </style>
  </defs>
  <g id="Diseño_propuesto" data-name="Diseño propuesto">
    <g>
      <rect class="cls-2" width="40.67" height="40.67"/>
      <g>
        <path class="cls-1" d="M20.21,17.29s-.07,0-.1,0c-.91,0-1.77,.37-2.42,1.05-.65,.68-1.01,1.57-1.01,2.51,0,1.96,1.59,3.55,3.55,3.55s3.51-1.57,3.55-3.57c.02-1.01-.27-1.87-.84-2.48-.61-.66-1.56-1.02-2.74-1.06Z"/>
        <path class="cls-1" d="M24.29,10.78h-8.11c-3.18,0-5.76,2.59-5.76,5.76v8.65c0,3.18,2.59,5.76,5.76,5.76h8.11c3.18,0,5.76-2.59,5.76-5.76v-8.65c0-3.18-2.59-5.76-5.76-5.76Zm-.28,13.85c-1.01,1.01-2.35,1.57-3.77,1.57-2.96,0-5.36-2.4-5.36-5.36,0-1.41,.54-2.75,1.52-3.76,.99-1.03,2.31-1.6,3.72-1.6,.05,0,.1,0,.15,0,1.67,.05,3.05,.61,4.01,1.63,.9,.96,1.36,2.26,1.33,3.75-.03,1.43-.6,2.77-1.59,3.77Zm1.72-8.05c-.69,0-1.25-.56-1.25-1.25s.56-1.25,1.25-1.25,1.25,.56,1.25,1.25-.56,1.25-1.25,1.25Z"/>
      </g>
    </g>
  </g>
</svg>