<?xml version="1.0" encoding="UTF-8"?>
<svg id="Capa_2" data-name="Capa 2" xmlns="http://www.w3.org/2000/svg" viewBox="0 0 99.03 76.53">
  <defs>
    <style>
      .cls-1 {
        fill: #fff;
      }

      .cls-2 {
        fill: #ca6231;
      }

      .cls-3 {
        fill: #20211d;
      }
    </style>
  </defs>
  <g id="Diseño_propuesto" data-name="Diseño propuesto">
    <g>
      <rect class="cls-3" x="11.25" y="-11.25" width="76.53" height="99.03" transform="translate(87.78 -11.25) rotate(90)"/>
      <g>
        <g>
          <path class="cls-1" d="M37.41,29.03c.33,0,.56,.28,.56,.6v14.59c0,6.19-3.13,9.45-9.09,9.45s-9.03-3.25-9.09-9.45v-14.59c0-.31,.26-.6,.56-.6h5.67c.33,0,.56,.28,.56,.6v15.22c0,1.61,.86,2.55,2.31,2.55s2.31-.94,2.31-2.52v-15.26c0-.31,.26-.6,.56-.6h5.67Z"/>
          <path class="cls-1" d="M56.45,29.03c.3,0,.49,.25,.46,.49l-.49,5.32c-.03,.28-.3,.49-.53,.49h-4.91v17.36c0,.24-.2,.49-.46,.49h-5.83c-.26,0-.49-.25-.49-.49v-17.36h-5.47c-.23,0-.46-.21-.46-.49v-5.28c0-.28,.23-.53,.46-.53h17.73Z"/>
          <path class="cls-1" d="M63.7,29.03c.3,0,.49,.25,.49,.53v23.13c0,.24-.2,.49-.49,.49h-5.83c-.23,0-.46-.25-.46-.49V29.56c0-.28,.23-.53,.46-.53h5.83Z"/>
          <path class="cls-1" d="M78.82,46.88c.23,0,.43,.21,.43,.49l-.46,5.32c-.03,.24-.26,.49-.53,.49h-11.89c-.26,0-.49-.25-.49-.49V29.56c0-.28,.23-.53,.49-.53h5.83c.26,0,.49,.25,.49,.53v17.32h6.13Z"/>
        </g>
        <path class="cls-2" d="M28.77,28.64c-1.73,0-2.88-1.15-2.88-2.86s1.14-2.93,2.88-2.93,2.88,1.18,2.88,2.93-1.14,2.86-2.88,2.86Z"/>
      </g>
    </g>
  </g>
</svg>