<svg xmlns="http://www.w3.org/2000/svg" viewBox="0 0 34.31 34.31"><defs><style>.cls-1{fill:#ca6231;stroke:#ca6231;stroke-miterlimit:10;stroke-width:0.5px;}</style></defs><g id="Capa_2" data-name="Capa 2"><g id="Diseño_propuesto" data-name="Diseño propuesto"><path class="cls-1" d="M17.15,34.06a16.91,16.91,0,1,1,16.91-16.9A16.92,16.92,0,0,1,17.15,34.06Zm0-32.24A15.34,15.34,0,1,0,32.49,17.16,15.35,15.35,0,0,0,17.15,1.82Z"/><path class="cls-1" d="M17.11,11h7.7c.49,0,.72.22.72.72V22.28c0,.48-.23.7-.71.7H9.49c-.48,0-.71-.22-.71-.7q0-5.28,0-10.56a1.09,1.09,0,0,1,.13-.5.45.45,0,0,1,.42-.2Zm7.21,2.28-.17.1-6.49,4a.81.81,0,0,1-1,0c-2.15-1.5-4.32-3-6.48-4.49L10,12.78v9H24.32Zm-.56-1.07H11.33l.15.12L17,16.19a.24.24,0,0,0,.31,0l6.09-3.75Z"/></g></g></svg>