<?xml version="1.0" encoding="UTF-8"?>
<svg id="Capa_2" data-name="Capa 2" xmlns="http://www.w3.org/2000/svg" viewBox="0 0 14.43 16.54">
  <g id="Diseño_propuesto" data-name="Diseño propuesto">
    <g>
      <path d="M12.51,16.54H1.91s-.04-.01-.06-.01c-.44-.04-.83-.21-1.16-.51C.22,15.59,0,15.06,0,14.43c0-3.42,0-6.85,0-10.27,0-.12,0-.25,.02-.37,.09-.54,.36-.98,.8-1.32,.33-.25,.7-.39,1.11-.4,.52-.01,1.04,0,1.56,0,.03,0,.07,0,.11,0V1.03s.04,0,.05,0c.42,0,.84,0,1.27,0,.04,0,.08-.02,.11-.04,.15-.14,.28-.3,.44-.43,.33-.26,.71-.42,1.13-.5,.14-.02,.28-.04,.41-.06,.14,0,.27,0,.41,0,.02,0,.04,.01,.06,.02,.24,.01,.47,.06,.7,.14,.46,.15,.87,.4,1.18,.79,.06,.08,.13,.1,.22,.1,.39,0,.77,0,1.16,0,.03,0,.06,0,.1,0v1.04s.08,0,.11,0c.47,0,.95,0,1.42,0,.22,0,.44,.03,.65,.1,.85,.28,1.42,1.08,1.42,2,0,3.42,0,6.84,0,10.25,0,.21-.02,.41-.08,.61-.2,.66-.62,1.13-1.27,1.37-.18,.07-.38,.09-.57,.13ZM3.6,3.11s-.04,0-.06,0c-.52,0-1.04,0-1.56,0-.02,0-.04,0-.06,0-.52,.08-.9,.53-.9,1.04,0,3.43,0,6.86,0,10.3,0,.06,0,.12,0,.18,.08,.51,.52,.89,1.04,.89,3.42,0,6.84,0,10.26,0,.08,0,.15,0,.23-.02,.51-.11,.84-.54,.84-1.03,0-1.54,0-3.08,0-4.62,0-.78,0-1.57,0-2.35,0-1.07,0-2.14,0-3.21,0-.08,0-.15,0-.23-.04-.53-.48-.94-1.01-.94-.49,0-.97,0-1.46,0h-.1v2.05H3.6V3.11Zm2.17-1.04h-1.14v2.06h5.15V2.07h-1.13c-.02-.09-.03-.17-.06-.25-.12-.34-.38-.53-.69-.66-.34-.14-.7-.17-1.06-.1-.29,.05-.56,.17-.78,.38-.18,.17-.28,.37-.29,.63Z"/>
      <path d="M7.21,10.85c-1.2,0-2.4,0-3.6,0-.3,0-.52-.22-.52-.51,0-.3,.22-.51,.52-.51,2.4,0,4.79,0,7.19,0,.3,0,.53,.22,.53,.51,0,.29-.22,.52-.52,.52-1.2,0-2.4,0-3.6,0Z"/>
      <path d="M7.21,13.44c-1.2,0-2.41,0-3.61,0-.28,0-.5-.22-.51-.5,0-.28,.23-.53,.51-.53,2.41,0,4.82,0,7.22,0,.28,0,.51,.23,.51,.52,0,.29-.22,.51-.51,.51-1.2,0-2.41,0-3.61,0h0Z"/>
      <path d="M7.21,7.24c1.18,0,2.37,0,3.55,0,.2,0,.37,.06,.48,.23,.11,.17,.12,.34,.03,.52-.09,.18-.25,.27-.45,.28-.02,0-.04,0-.07,0-2.38,0-4.76,0-7.14,0-.26,0-.47-.16-.52-.41-.07-.34,.18-.62,.47-.62,.96,0,1.91,0,2.87,0,.26,0,.52,0,.78,0Z"/>
    </g>
  </g>
</svg>