<svg xmlns="http://www.w3.org/2000/svg" viewBox="0 0 33.81 33.81"><defs><style>.cls-1{fill:#ca6231;}</style></defs><g id="Capa_2" data-name="Capa 2"><g id="Diseño_propuesto" data-name="Diseño propuesto"><path class="cls-1" d="M16.9,33.81a16.91,16.91,0,1,1,16.91-16.9A16.92,16.92,0,0,1,16.9,33.81Zm0-32.24A15.34,15.34,0,1,0,32.24,16.91,15.35,15.35,0,0,0,16.9,1.57Z"/><path class="cls-1" d="M10.81,17.12a12.87,12.87,0,0,0,6,5.62c.12-.19.22-.37.33-.55s.24-.4.35-.61a.89.89,0,0,1,.91-.49,17.78,17.78,0,0,1,1.79.18c.91.16,1.82.35,2.72.56a1.67,1.67,0,0,1,1.37,1.51,2.38,2.38,0,0,1-.5,1.73,4.39,4.39,0,0,1-3.84,2,8.74,8.74,0,0,1-3.73-.85,20.28,20.28,0,0,1-7.35-5.45,11.3,11.3,0,0,1-2.52-4.94,6,6,0,0,1,.35-4A4.22,4.22,0,0,1,9,9.74a2.1,2.1,0,0,1,2.14.45,1.54,1.54,0,0,1,.33.6,27.72,27.72,0,0,1,1,4.22c.12,1.15,0,1.18-.88,1.73Z"/><path class="cls-1" d="M16.49,6.72a11.45,11.45,0,0,1,9.36,6.07,11.27,11.27,0,0,1,1.25,3.87.6.6,0,1,1-1.18.18A10.27,10.27,0,0,0,17.36,8c-.31,0-.63-.09-.94-.11s-.7-.28-.68-.65S16,6.71,16.49,6.72Z"/><path class="cls-1" d="M23.88,16.76a.6.6,0,0,1-.55.62.63.63,0,0,1-.64-.51,10.36,10.36,0,0,0-.42-1.5,7.12,7.12,0,0,0-5.74-4.5l-.24,0a.62.62,0,0,1-.56-.65.57.57,0,0,1,.68-.53,10.46,10.46,0,0,1,1.86.42,8.27,8.27,0,0,1,5.59,6.52A.53.53,0,0,1,23.88,16.76Z"/><path class="cls-1" d="M20.81,16.88a.58.58,0,0,1-.48.59.58.58,0,0,1-.68-.41,4.46,4.46,0,0,0-.55-1.34,4,4,0,0,0-2.83-1.86.61.61,0,0,1-.57-.69.59.59,0,0,1,.76-.48,5.17,5.17,0,0,1,4.3,3.91c0,.07,0,.14,0,.22Z"/></g></g></svg>