<?xml version="1.0" encoding="UTF-8"?>
<svg id="Capa_2" data-name="Capa 2" xmlns="http://www.w3.org/2000/svg" viewBox="0 0 41.7 11.03">
  <defs>
    <style>
      .cls-1 {
        fill: #727176;
      }
    </style>
  </defs>
  <g id="Diseño_propuesto" data-name="Diseño propuesto">
    <g>
      <path class="cls-1" d="M35.84,3.63c0-.38-.09-.71-.28-.99-.19-.29-.52-.43-.98-.44h-1.41v2.87h1.24c.95-.02,1.43-.5,1.42-1.44Zm-1.81,.71v-1.4h.27c.16,0,.28,.02,.37,.07,.09,.05,.16,.12,.2,.2,.05,.07,.08,.15,.09,.22,0,.08,.01,.14,.01,.19,0,.06,0,.14-.02,.22-.02,.08-.05,.16-.09,.23-.04,.07-.1,.13-.18,.19-.08,.05-.19,.08-.32,.08h-.34Z"/>
      <path class="cls-1" d="M38.79,3.81c-.05-.09-.11-.17-.19-.23-.08-.06-.17-.12-.27-.15-.1-.04-.2-.07-.31-.1-.2-.05-.38-.1-.54-.15-.07-.03-.14-.06-.18-.09-.05-.03-.08-.07-.08-.12,0-.04,.01-.07,.03-.1,.02-.02,.05-.04,.08-.06,.07-.02,.13-.04,.2-.04,.09,0,.18,.02,.25,.07,.08,.05,.11,.12,.1,.23h.81c-.02-.34-.14-.59-.36-.73-.22-.14-.49-.2-.8-.2-.3,0-.55,.07-.77,.22-.23,.15-.34,.39-.35,.73,0,.14,.03,.26,.09,.35,.06,.1,.14,.17,.23,.23,.09,.06,.2,.11,.31,.15,.11,.04,.22,.07,.34,.1,.24,.06,.41,.12,.5,.16,.08,.04,.12,.1,.12,.17,0,.1-.05,.17-.13,.21-.09,.04-.17,.05-.25,.05-.09,0-.17-.01-.25-.04-.09-.03-.15-.08-.18-.17-.02-.05-.03-.12-.03-.19h-.85c0,.23,.06,.41,.16,.54,.1,.14,.21,.24,.35,.31,.14,.07,.28,.12,.41,.14,.13,.02,.24,.04,.33,.04,.33,0,.63-.07,.9-.22,.27-.15,.41-.4,.41-.77,0-.13-.02-.24-.06-.34Z"/>
      <path class="cls-1" d="M40.71,4.45c-.09,.04-.17,.05-.25,.05-.09,0-.17-.01-.25-.04-.09-.03-.15-.08-.18-.17-.02-.05-.03-.12-.03-.19h-.85c0,.23,.06,.41,.16,.54,.1,.14,.21,.24,.35,.31,.14,.07,.28,.12,.41,.14,.13,.02,.24,.04,.33,.04,.33,0,.63-.07,.9-.22,.27-.15,.41-.4,.41-.77,0-.13-.02-.24-.06-.34-.05-.09-.11-.17-.19-.23-.08-.06-.17-.12-.27-.15-.1-.04-.2-.07-.31-.1-.2-.05-.38-.1-.54-.15-.07-.03-.14-.06-.18-.09-.05-.03-.08-.07-.08-.12,0-.04,.01-.07,.03-.1,.02-.02,.05-.04,.08-.06,.07-.02,.13-.04,.2-.04,.09,0,.18,.02,.25,.07,.08,.05,.11,.12,.1,.23h.81c-.02-.34-.14-.59-.36-.73-.22-.14-.49-.2-.8-.2-.3,0-.55,.07-.77,.22-.23,.15-.34,.39-.35,.73,0,.14,.03,.26,.09,.35,.06,.1,.14,.17,.23,.23,.09,.06,.2,.11,.31,.15,.11,.04,.22,.07,.34,.1,.24,.06,.41,.12,.5,.16,.08,.04,.12,.1,.12,.17,0,.1-.05,.17-.13,.21Z"/>
      <path class="cls-1" d="M33.7,6.32s-.06,.05-.11,.05c-.07,0-.11-.03-.14-.08-.03-.05-.04-.11-.04-.18,0-.07,.01-.13,.04-.18,.03-.05,.07-.08,.14-.08,.03,0,.05,0,.07,.01,.02,.01,.03,.03,.04,.04,.01,.01,.02,.03,.02,.05,0,.02,0,.03,0,.04h.28c-.03-.25-.17-.37-.42-.38-.15,0-.26,.05-.34,.14-.09,.09-.13,.21-.13,.37,0,.14,.04,.26,.12,.36,.08,.1,.2,.15,.35,.15,.14,0,.24-.05,.32-.13,.07-.08,.11-.17,.11-.27h-.28s-.02,.08-.04,.11Z"/>
      <path class="cls-1" d="M34.62,5.6c-.14,0-.26,.05-.34,.14-.09,.09-.13,.21-.13,.36,0,.15,.04,.27,.13,.36,.08,.09,.2,.14,.34,.14,.14,0,.26-.05,.34-.14,.09-.09,.13-.21,.13-.36,0-.15-.04-.27-.13-.36-.08-.09-.2-.14-.34-.14Zm.17,.63s-.03,.06-.05,.08c-.02,.02-.04,.03-.06,.04-.02,0-.04,.01-.06,.01-.04,0-.08-.02-.12-.05-.02-.02-.03-.05-.05-.08-.01-.03-.02-.08-.02-.13s0-.1,.02-.13c0-.02,.01-.03,.02-.05,0-.01,.02-.02,.02-.03,.02-.02,.04-.03,.06-.04,.02,0,.04,0,.06,0,.04,0,.08,.02,.12,.05,.02,.02,.04,.04,.05,.08,.01,.04,.02,.08,.02,.13s0,.1-.02,.13Z"/>
      <polygon class="cls-1" points="35.8 6.19 35.79 6.19 35.66 5.62 35.25 5.62 35.25 6.59 35.52 6.59 35.52 5.97 35.52 5.97 35.69 6.59 35.9 6.59 36.06 5.97 36.07 5.97 36.07 6.59 36.34 6.59 36.34 5.62 35.93 5.62 35.8 6.19"/>
      <path class="cls-1" d="M37.18,5.65s-.1-.03-.17-.03h-.49v.96h.29v-.29h.18c.11,0,.2-.03,.27-.08,.07-.06,.1-.14,.11-.26,0-.07-.02-.15-.08-.22-.03-.03-.06-.06-.11-.08Zm-.1,.36s-.02,.03-.04,.03c-.03,.01-.07,.02-.11,.02h-.12v-.2h.14s.07,0,.1,.01c.03,.01,.04,.04,.04,.08,0,.02,0,.04-.01,.06Z"/>
      <polygon class="cls-1" points="37.76 5.62 37.47 5.62 37.47 6.59 38.17 6.59 38.17 6.34 37.76 6.34 37.76 5.62"/>
      <rect class="cls-1" x="38.32" y="5.62" width=".29" height=".96"/>
      <path class="cls-1" d="M39.03,5.62l-.34,.96h.29l.04-.14h.3l.04,.14h.3l-.34-.96h-.28Zm.05,.62l.09-.3h0l.08,.3h-.18Z"/>
      <polygon class="cls-1" points="40.32 6.14 40.31 6.14 40.04 5.62 39.75 5.62 39.75 6.59 40.02 6.59 40.02 6.06 40.02 6.06 40.31 6.59 40.59 6.59 40.59 5.62 40.32 5.62 40.32 6.14"/>
      <polygon class="cls-1" points="40.73 5.87 40.99 5.87 40.99 6.59 41.27 6.59 41.27 5.87 41.53 5.87 41.53 5.62 40.73 5.62 40.73 5.87"/>
      <path class="cls-1" d="M20.61,5.49c.34,0,.69-.2,.69-.47,0-.07-.01-.14-.04-.2-.05-.19-.21-.32-.52-.35-.08,0-.17-.02-.24-.02h-.1v.97s.01,0,.02,0v.07c.05,0,.15,0,.18,0Z"/>
      <path class="cls-1" d="M30.21,7.27l1.13-.36-.38-.86c-.24,.37-.49,.78-.75,1.23Z"/>
      <path class="cls-1" d="M22.94,5.5c0-1.07,1.17-2.35,3.9-1.68l.02,.96c-1.96-.5-2.27,.48-2.24,.85,.13,1.49,2.16,.88,2.24,.85v.1c.18,.09,.38,.24,.57,.41V3.7h1.58v2.18c.37-.63,.75-1.18,1.14-1.65l-1.54-3.52-12.04,.68,2.36,5.94V3.65h1.66c.19,0,.44,.03,.68,.05,1.07,.1,1.52,.68,1.52,1.44s-1,1.28-1.98,1.28c-.11,0-.22,0-.31,0v1.16h-1.48l1.09,2.75,6.12-1.99c-.23-.29-.42-.57-.5-.75-2.35,.25-2.79-1.14-2.79-2.08Zm5.22-3.98c.5,0,.9,.4,.9,.9s-.4,.9-.9,.9-.9-.4-.9-.9,.4-.9,.9-.9Z"/>
      <path class="cls-1" d="M30.75,4.14c-.48,.45-1.11,1.21-1.82,2.46-.23,.38-.47,.81-.73,1.29-.04,.07-.14,.02-.27-.09-.02-.01-.03-.03-.05-.04,0,0-.01,0-.02-.01-.01-.01-.03-.02-.04-.04,0,0-.01-.01-.02-.02-.02-.01-.03-.03-.05-.04,0,0-.01,0-.02-.01-.02-.02-.04-.04-.06-.06-.12-.11-.25-.24-.39-.36,0,0,0,0,0,0-.05-.04-.09-.08-.14-.12,0,0,0,0,0,0-.2-.16-.38-.29-.54-.31-.22-.04-.67,.43-.62,.67,.01,.08,.1,.24,.23,.42,0,0,0,0,0,0,.02,.03,.04,.06,.06,.09,0,0,0,0,0,.01,.07,.09,.15,.19,.23,.29h0c.3,.36,.65,.74,.89,.92,.13,.1,.96,.66,1.63-.5,2.43-4.23,3.93-5.57,3.93-5.57,0,0-.74,.03-1.23,.28-.16,.08-.49,.26-.98,.76Z"/>
      <path class="cls-1" d="M11.28,0H1.16C.52,0,0,.51,0,1.14V7.43c0,.63,.52,1.15,1.16,1.15H5.74v1.7c0,.42,.34,.76,.76,.76h3.51c.42,0,.76-.34,.76-.76v-1.7h.52c.63,0,1.12-.5,1.12-1.15V1.14c0-.64-.49-1.14-1.12-1.14ZM1.16,.65H11.28c.27,0,.48,.21,.48,.49v.23H.65v-.23c0-.27,.24-.49,.52-.49Zm10.59,1.37v.99H.65v-.99H11.75Zm-1.64,8.26c0,.06-.05,.11-.11,.11h-3.51c-.06,0-.11-.05-.11-.11v-2.69c0-.06,.05-.11,.11-.11h3.51c.06,0,.11,.05,.11,.11v2.69Zm-.82-3.45h-2.09v-1.04c0-.57,.47-1.04,1.04-1.04s1.04,.47,1.04,1.04v1.04Zm1.98,1.09h-.52v-.34c0-.42-.34-.76-.76-.76h-.06v-1.04c0-.93-.76-1.69-1.69-1.69s-1.69,.76-1.69,1.69v1.04h-.06c-.42,0-.76,.34-.76,.76v.34H1.16c-.28,0-.52-.23-.52-.5V3.65H11.75v3.77c0,.28-.21,.5-.48,.5Z"/>
      <rect class="cls-1" x="1.14" y="4.1" width="1.64" height=".65"/>
      <rect class="cls-1" x="3.33" y="4.1" width="1.64" height=".65"/>
    </g>
  </g>
</svg>