<?xml version="1.0" encoding="UTF-8"?>
<svg id="Capa_2" data-name="Capa 2" xmlns="http://www.w3.org/2000/svg" viewBox="0 0 41.83 15.22">
  <defs>
    <style>
      .cls-1 {
        fill: #be3472;
      }
    </style>
  </defs>
  <g id="Diseño_propuesto" data-name="Diseño propuesto">
    <g>
      <path class="cls-1" d="M16.47,0H3.18c-1.03,0-1.69,1.1-1.21,2.01l1.33,2.52H.89C.22,4.52-.21,5.23,.1,5.82L4.38,13.91c.33,.63,1.23,.63,1.57,0l1.16-2.19,1.46,2.76c.51,.97,1.9,.97,2.42,0L17.64,1.96c.47-.89-.17-1.96-1.18-1.96m-5.97,5.36l-2.87,5.41c-.22,.42-.82,.42-1.04,0L3.74,5.38c-.21-.39,.08-.87,.52-.87h5.73c.43,0,.71,.46,.51,.84"/>
      <path class="cls-1" d="M30.6,5.81h-1.45v4.98c0,.09-.08,.17-.17,.17h-1.12c-.09,0-.17-.08-.17-.17V5.81h-1.46c-.09,0-.17-.07-.17-.16v-.88c0-.09,.08-.16,.17-.16h4.38c.09,0,.18,.07,.18,.16v.88c0,.09-.09,.16-.18,.16"/>
      <path class="cls-1" d="M35.27,10.93c-.3,.04-.8,.11-1.73,.11-1.1,0-2.08-.28-2.08-1.84v-2.84c0-1.56,.98-1.83,2.09-1.83,.92,0,1.42,.07,1.72,.11,.12,.02,.17,.06,.17,.17v.8c0,.09-.08,.17-.17,.17h-1.8c-.4,0-.55,.14-.55,.58v.78h2.28c.09,0,.17,.08,.17,.17v.81c0,.09-.08,.17-.17,.17h-2.28v.91c0,.44,.15,.58,.55,.58h1.8c.09,0,.17,.08,.17,.17v.8c0,.11-.05,.16-.17,.18"/>
      <path class="cls-1" d="M41.72,10.97h-1.36c-.11,0-.16-.03-.22-.13l-1.18-1.87-1.07,1.83c-.06,.1-.12,.17-.21,.17h-1.27c-.09,0-.13-.05-.13-.11,0-.02,0-.04,.02-.06l1.86-3.09-1.87-2.94s-.02-.03-.02-.05c0-.06,.06-.11,.13-.11h1.38c.09,0,.16,.09,.21,.16l1.09,1.73,1.06-1.73c.04-.08,.12-.16,.21-.16h1.27c.07,0,.13,.05,.13,.11,0,.02,0,.03-.02,.05l-1.86,2.95,1.94,3.07s.03,.06,.03,.09c0,.05-.04,.09-.11,.09"/>
      <path class="cls-1" d="M24,4.63c-.06,0-.12,.04-.13,.11l-1.24,4.6c-.02,.09-.04,.13-.12,.13s-.1-.03-.12-.13l-1.24-4.6c-.01-.06-.07-.11-.13-.11h-1.22c-.09,0-.15,.08-.13,.16,0,0,1.52,5.27,1.53,5.32,.2,.63,.69,.93,1.32,.93s1.12-.31,1.32-.93c.02-.07,1.51-5.33,1.51-5.33,.02-.08-.04-.16-.13-.16h-1.22Z"/>
      <path class="cls-1" d="M16.47,0H3.18c-1.03,0-1.69,1.1-1.21,2.01l1.33,2.52H.89C.22,4.52-.21,5.23,.1,5.82L4.38,13.91c.33,.63,1.23,.63,1.57,0l1.16-2.19,1.46,2.76c.51,.97,1.9,.97,2.42,0L17.64,1.96c.47-.89-.17-1.96-1.18-1.96m-5.97,5.36l-2.87,5.41c-.22,.42-.82,.42-1.04,0L3.74,5.38c-.21-.39,.08-.87,.52-.87h5.73c.43,0,.71,.46,.51,.84"/>
    </g>
  </g>
</svg>