<?xml version="1.0" encoding="UTF-8"?>
<svg id="Capa_2" data-name="Capa 2" xmlns="http://www.w3.org/2000/svg" viewBox="0 0 14.96 15.08">
  <defs>
    <style>
      .cls-1 {
        fill: #ca6231;
      }
    </style>
  </defs>
  <g id="Diseño_propuesto" data-name="Diseño propuesto">
    <g>
      <path class="cls-1" d="M0,15.08c.19-.57,.37-1.1,.55-1.64,.23-.7,.46-1.39,.7-2.08,.05-.15,.04-.27-.04-.42C-.94,7.14,.76,2.22,4.8,.56c4.4-1.81,9.36,.98,10.08,5.68,.63,4.13-2.29,7.94-6.44,8.41-1.48,.17-2.88-.09-4.2-.78-.13-.07-.23-.07-.36-.03-1.21,.39-2.41,.77-3.62,1.16-.07,.02-.13,.04-.25,.08Zm1.91-1.89c.11-.03,.18-.05,.24-.07,.64-.2,1.28-.4,1.91-.62,.14-.04,.23-.02,.36,.05,2.23,1.29,4.47,1.26,6.6-.15,2.11-1.4,2.99-3.46,2.63-5.96C13.12,2.71,9.29,.37,5.73,1.53,1.99,2.74,.22,7.33,2.55,10.76c.09,.13,.1,.24,.05,.39-.23,.66-.45,1.33-.69,2.05Z"/>
      <path class="cls-1" d="M3.94,5.61c.02-.64,.19-1.18,.66-1.58,.28-.24,.59-.36,.97-.29,.16,.03,.26,.1,.32,.25,.2,.53,.41,1.06,.6,1.6,.03,.09,.02,.23-.04,.3-.14,.21-.3,.41-.48,.6-.14,.14-.15,.27-.06,.44,.57,1.04,1.4,1.8,2.48,2.29,.15,.07,.27,.04,.38-.08,.18-.21,.37-.41,.55-.63,.19-.22,.28-.25,.55-.11,.34,.17,.68,.36,1.02,.54,.04,.02,.09,.05,.13,.07,.48,.26,.54,.46,.31,.96-.39,.85-1.4,1.29-2.29,1.01-1.89-.58-3.32-1.75-4.36-3.41-.33-.53-.63-1.06-.72-1.7-.01-.1-.02-.2-.02-.26Z"/>
    </g>
  </g>
</svg>