<svg xmlns="http://www.w3.org/2000/svg" viewBox="0 0 34.03 34.13"><defs><style>.cls-1{fill:#ca6231;}</style></defs><g id="Capa_2" data-name="Capa 2"><g id="Diseño_propuesto" data-name="Diseño propuesto"><path class="cls-1" d="M34,15.34a16.1,16.1,0,0,0-2.48-7.59A16.54,16.54,0,0,0,14.69.25,16,16,0,0,0,5.05,5.68a16.19,16.19,0,0,0-4,12.59,15.92,15.92,0,0,0,2,6.37c-.4,1.17-.8,2.35-1.19,3.52L1,30.89,0,34.13l1.71-.31,2.08-.65,6.13-2a16.43,16.43,0,0,0,11.22,1.44,16,16,0,0,0,8.67-5.1A16.21,16.21,0,0,0,34,15.34ZM28.28,26.19a14,14,0,0,1-7.58,4.46,14.44,14.44,0,0,1-10-1.34,1.65,1.65,0,0,0-1.21-.11l-6.33,2-.11,0,.82-2.45c.41-1.21.82-2.43,1.24-3.64A1.65,1.65,0,0,0,5,23.75a14.08,14.08,0,0,1-1.85-5.68A14.22,14.22,0,0,1,6.6,7,14,14,0,0,1,15,2.27a15,15,0,0,1,2.56-.22A14.47,14.47,0,0,1,29.78,8.84,13.79,13.79,0,0,1,32,15.47,14.21,14.21,0,0,1,28.28,26.19Z"/><path class="cls-1" d="M20.9,23.57a3.78,3.78,0,0,1-1.2-.2A15,15,0,0,1,16,21.69a13.56,13.56,0,0,1-3.71-3.82,11.31,11.31,0,0,1-1.41-2.58A4.65,4.65,0,0,1,11,11.5a4.44,4.44,0,0,1,1.13-1.39,1.9,1.9,0,0,1,1.5-.43l.58,0a1.33,1.33,0,0,1,1.18.91c.14.36.28.73.41,1.09l.57,1.49a1.33,1.33,0,0,1-.15,1.34c-.26.34-.51.68-.78,1A7.67,7.67,0,0,0,19,18.85q.43-.48.84-1a1.24,1.24,0,0,1,1.67-.39c.53.26,1,.53,1.57.8l1,.56A1.24,1.24,0,0,1,24.81,20a3.3,3.3,0,0,1-2.08,3.11h0A4.49,4.49,0,0,1,20.9,23.57Z"/><path class="cls-1" d="M24.79,21.22Z"/></g></g></svg>