<?xml version="1.0" encoding="UTF-8"?>
<svg id="Capa_2" data-name="Capa 2" xmlns="http://www.w3.org/2000/svg" viewBox="0 0 40.67 40.67">
  <defs>
    <style>
      .cls-1 {
        fill: #fff;
      }

      .cls-2 {
        fill: #ca6231;
      }
    </style>
  </defs>
  <g id="Diseño_propuesto" data-name="Diseño propuesto">
    <g>
      <rect class="cls-2" width="40.67" height="40.67"/>
      <path class="cls-1" d="M30.04,17.98c-.9-5.88-7.1-9.38-12.61-7.11-5.06,2.08-7.18,8.24-4.49,13,.1,.18,.12,.33,.05,.52-.3,.87-.59,1.74-.88,2.61-.22,.66-.45,1.33-.69,2.05,.15-.05,.23-.07,.32-.1,1.51-.48,3.02-.96,4.53-1.45,.16-.05,.29-.05,.45,.04,1.65,.86,3.4,1.19,5.25,.98,5.2-.6,8.85-5.36,8.06-10.53Zm-4.44,4.66c-.49,1.06-1.75,1.61-2.86,1.27-2.36-.73-4.15-2.19-5.46-4.27-.42-.66-.79-1.33-.9-2.12-.02-.12-.02-.25-.03-.32,.02-.81,.23-1.47,.83-1.98,.35-.3,.74-.44,1.21-.36,.2,.03,.33,.13,.4,.31,.25,.67,.51,1.33,.75,2,.04,.11,.02,.28-.04,.38-.18,.26-.38,.52-.6,.75-.17,.18-.19,.34-.07,.55,.72,1.3,1.75,2.26,3.11,2.86,.19,.09,.34,.05,.48-.1,.23-.26,.46-.52,.69-.78,.23-.28,.35-.31,.69-.14,.43,.22,.85,.45,1.28,.67,.06,.03,.11,.06,.16,.09,.6,.33,.68,.57,.38,1.2Z"/>
    </g>
  </g>
</svg>