<svg xmlns="http://www.w3.org/2000/svg" viewBox="0 0 69.03 69.03"><defs><style>.cls-1{fill:#ca6231;}.cls-2{fill:#fff;}</style></defs><g id="Capa_2" data-name="Capa 2"><g id="Diseño_propuesto" data-name="Diseño propuesto"><rect class="cls-1" width="69.03" height="69.03"/><path class="cls-2" d="M51,30.51a15.61,15.61,0,1,0-29,10,1,1,0,0,1,.09.88c-.51,1.47-1,3-1.5,4.43-.37,1.13-.75,2.26-1.16,3.47l.54-.17c2.56-.82,5.13-1.63,7.69-2.46a.89.89,0,0,1,.76.06,15.18,15.18,0,0,0,8.92,1.66A15.61,15.61,0,0,0,51,30.51Zm-7.54,7.9a4.09,4.09,0,0,1-4.85,2.15,16.39,16.39,0,0,1-9.26-7.24,9.1,9.1,0,0,1-1.53-3.61c0-.2,0-.42,0-.54a4.28,4.28,0,0,1,1.4-3.36,2.35,2.35,0,0,1,2.05-.62.81.81,0,0,1,.68.53c.43,1.13.86,2.26,1.26,3.4a.79.79,0,0,1-.07.64,9.54,9.54,0,0,1-1,1.27.7.7,0,0,0-.13.93,11,11,0,0,0,5.28,4.86.63.63,0,0,0,.81-.17c.38-.45.78-.88,1.16-1.33s.6-.53,1.17-.24l2.16,1.14.28.15C43.81,36.93,44,37.35,43.45,38.41Z"/></g></g></svg>