<?xml version="1.0" encoding="UTF-8"?>
<svg id="Capa_2" data-name="Capa 2" xmlns="http://www.w3.org/2000/svg" viewBox="0 0 68.23 18.06">
  <defs>
    <style>
      .cls-1 {
        fill: #156685;
      }

      .cls-2 {
        fill: #5fa1ab;
      }

      .cls-3 {
        font-family: SourceSansRoman-Light, 'Source Sans Variable';
        font-size: 3.98px;
        font-variation-settings: 'wght' 300;
      }

      .cls-3, .cls-4 {
        fill: #171b47;
      }
    </style>
  </defs>
  <g id="Diseño_propuesto" data-name="Diseño propuesto">
    <g>
      <g>
        <g>
          <path class="cls-4" d="M13.06,.43l-1.81,1.64v1.38h-2.58L4.32,7.82l4.35,4.79h2.62L6.93,7.82l2.74-2.75h1.57v5.52c0,1.58,.89,2.16,2.16,2.16,.42,0,.91-.12,1.33-.25v-1.62c-.89,.31-1.68,.35-1.68-.54V5.06h1.68v-1.58h-1.68V.43Z"/>
          <path class="cls-4" d="M32.21,10.33V5.06h1.68v-1.58h-1.68V.43l-1.81,1.64v1.41h-1.18v1.58h1.18v5.52c0,1.58,.89,2.16,2.16,2.16,.42,0,.91-.12,1.33-.25v-1.62c-.89,.31-1.68,.35-1.68-.54Z"/>
          <path class="cls-4" d="M38.44,3.21c-2.37,0-4.79,1.87-4.79,4.82s2.12,4.82,5.08,4.82c1.95,0,3.59-.85,4.57-2.37l-1.58-.69c-.68,.96-1.78,1.49-2.95,1.49-1.7,0-2.86-1.02-3.13-2.8h7.66c0-3.34-2.34-5.27-4.86-5.27Zm-2.74,3.96c.27-1.52,1.35-2.51,2.78-2.51s2.7,1.06,2.99,2.51h-5.77Z"/>
          <path class="cls-4" d="M57,3.45l-5.78,.03v1.29c-.95-.96-2.01-1.45-3.22-1.45-2.55,0-4.52,2.1-4.52,4.84s1.87,4.69,4.44,4.69c1.25,0,2.55-.6,3.26-1.51h.04v1.37c0,2.01-1.81,2.59-2.93,2.59-.93,0-1.79-.31-2.59-.95l-1.16,1.31c1.22,.89,2.2,1.22,3.59,1.22,2.05,0,4.88-.96,4.88-4.23V5.06h1.64v-.03h.53v5.94h-1.45v1.58h4.71v-1.58h-1.45V3.45Zm-8.73,7.83c-.41,0-.79-.08-1.13-.22l-1.28,.58,.22-1.4c-.43-.54-.67-1.27-.67-2.11,0-1.79,1.24-3.13,2.89-3.13s2.93,1.35,2.93,3.13-1.27,3.15-2.97,3.15Z"/>
          <path class="cls-4" d="M56.05,2.16c.6,0,1.08-.48,1.08-1.08s-.48-1.08-1.08-1.08-1.08,.48-1.08,1.08,.48,1.08,1.08,1.08Z"/>
          <path class="cls-4" d="M28.73,6.01c0-1.47-.91-2.8-3.57-2.8-1.19,0-2.15,.3-2.9,.88v-.76h-1.18c-1.14,0-2.3,.68-2.88,2.2h-.04V3.48h-3.26v1.58h1.83v5.94h-1.79v1.58h5.58v-1.58h-1.97v-2.61c0-2.08,.64-3.26,2.74-3.26h.04c-.04,.06-.08,.13-.11,.19l1.72,.46c.41-.71,1.08-1.08,1.95-1.08,1.08,0,2.03,.46,2.03,1.76v.4c-.45-.03-.9-.05-1.34-.04-.37,0-.75,.03-1.12,.08-.31,.04-.62,.1-.92,.18-.25,.07-.5,.15-.73,.26-.2,.09-.39,.19-.57,.32-.15,.11-.3,.22-.43,.36-.11,.11-.22,.24-.31,.37-.08,.12-.15,.24-.2,.37-.05,.11-.09,.23-.12,.35-.03,.1-.05,.2-.06,.3-.01,.08-.02,.16-.02,.24,0,.11,0,.23,.01,.34,0,.09,.01,.18,.03,.27,.03,.18,.07,.35,.13,.52,.12,.33,.29,.63,.52,.9,.23,.27,.51,.49,.82,.66,.32,.18,.68,.3,1.04,.36,.18,.03,.37,.04,.55,.04,1,0,1.79-.35,2.93-1.27v1.12h3.17v-1.58h-1.56V6.01Zm-1.81,4.27c-.73,.68-1.64,1.08-2.45,1.08-.29,0-.59-.06-.86-.19-.29-.15-.53-.39-.66-.7-.11-.26-.15-.56-.11-.84,.01-.11,.04-.22,.1-.31,.12-.21,.31-.37,.51-.49,.25-.15,.53-.25,.8-.33,.31-.09,.63-.16,.95-.21,.31-.05,.62-.09,.94-.11,.06,0,.78-.05,.78-.04v2.15Z"/>
          <polygon class="cls-4" points="57.81 3.45 57.81 5.03 59.44 5.03 59.44 12.59 61.26 12.59 61.26 3.45 57.81 3.45"/>
        </g>
        <polygon class="cls-1" points="4.35 7.82 6.97 7.82 2.62 12.61 0 12.61 4.35 7.82"/>
        <polygon class="cls-2" points="4.35 7.82 6.97 7.82 2.62 3.45 0 3.45 4.35 7.82"/>
        <polygon class="cls-1" points="63.88 7.82 61.26 7.82 65.61 12.61 68.23 12.61 63.88 7.82"/>
        <polygon class="cls-2" points="63.88 7.82 61.26 7.82 65.61 3.45 68.23 3.45 63.88 7.82"/>
      </g>
      <text class="cls-3" transform="translate(0 16.91)"><tspan x="0" y="0">ecommerce solutions</tspan></text>
    </g>
  </g>
</svg>